<?xml version="1.0" encoding="utf-8"?>
<!-- Generator: Adobe Illustrator 25.0.1, SVG Export Plug-In . SVG Version: 6.00 Build 0)  -->
<svg version="1.1" id="Layer_1" xmlns="http://www.w3.org/2000/svg" xmlns:xlink="http://www.w3.org/1999/xlink" x="0px" y="0px"
	 viewBox="0 0 153 26" style="enable-background:new 0 0 153 26;" xml:space="preserve">
<style type="text/css">
	.st0{fill:#FFFFFF;}
</style>
<path class="st0" d="M44.6,25v-5.3l1.9-2.1l4.4,7.5h5.4l-6.3-10.4l6.3-7h-5.9l-5.9,6.3V0.8h-4.8V25C39.8,25,44.6,25,44.6,25z
	 M63.9,25.4c2.2,0,3.9-0.7,5.2-2V25h4.5V13.5c0-1.3-0.3-2.4-0.9-3.3c-0.6-0.9-1.5-1.7-2.6-2.2c-1.1-0.5-2.4-0.8-3.9-0.8
	c-1.9,0-3.5,0.4-4.9,1.3s-2.4,2-2.9,3.5l3.8,1.8c0.3-0.7,0.8-1.4,1.4-1.9c0.6-0.5,1.4-0.7,2.3-0.7c0.9,0,1.6,0.2,2.1,0.7
	c0.5,0.4,0.8,1,0.8,1.7V14L64,14.7c-2.1,0.3-3.6,1-4.7,2c-1,1-1.5,2.2-1.5,3.6c0,1.6,0.5,2.8,1.6,3.7C60.6,24.9,62,25.4,63.9,25.4z
	 M64.9,21.9c-0.6,0-1.1-0.1-1.5-0.4c-0.4-0.3-0.6-0.7-0.6-1.2c0-0.6,0.2-1,0.5-1.3c0.4-0.3,0.9-0.5,1.6-0.7l4-0.7V18
	c0,1.1-0.4,2-1.1,2.7S66.1,21.9,64.9,21.9z M82,25V14.8c0-1,0.3-1.8,0.9-2.4c0.6-0.6,1.4-0.9,2.3-0.9s1.7,0.3,2.3,0.9
	s0.9,1.4,0.9,2.4V25h4.8V13.8c0-1.3-0.3-2.5-0.8-3.5C91.8,9.3,91,8.5,90,8c-1-0.6-2.2-0.8-3.5-0.8c-1.1,0-2.1,0.2-2.9,0.6
	c-0.8,0.4-1.5,1.1-2,1.9V7.5h-4.5V25C77.2,25,82,25,82,25z M106.1,25.4c1.7,0,3.2-0.4,4.6-1.2c1.3-0.8,2.4-1.9,3.2-3.3
	c0.8-1.4,1.2-2.9,1.2-4.6c0-1.7-0.4-3.2-1.2-4.6c-0.8-1.4-1.9-2.5-3.2-3.3c-1.3-0.8-2.8-1.2-4.5-1.2c-2.1,0-3.8,0.6-5,1.9V0.8h-4.8
	V25h4.5v-1.7c0.6,0.7,1.4,1.2,2.3,1.5C104.1,25.2,105.1,25.4,106.1,25.4z M105.6,21.1c-1.3,0-2.4-0.4-3.2-1.3
	c-0.8-0.9-1.2-2-1.2-3.5c0-1.4,0.4-2.6,1.2-3.5c0.8-0.9,1.9-1.3,3.2-1.3c1.3,0,2.4,0.5,3.3,1.4c0.9,0.9,1.3,2.1,1.3,3.4
	c0,1.4-0.4,2.6-1.3,3.5S106.9,21.1,105.6,21.1z M123.3,25.4c2.2,0,3.9-0.7,5.2-2V25h4.5V13.5c0-1.3-0.3-2.4-0.9-3.3
	c-0.6-0.9-1.5-1.7-2.6-2.2c-1.1-0.5-2.4-0.8-3.9-0.8c-1.9,0-3.5,0.4-4.9,1.3c-1.4,0.9-2.4,2-2.9,3.5l3.8,1.8
	c0.3-0.7,0.8-1.4,1.4-1.9c0.7-0.5,1.4-0.7,2.3-0.7c0.9,0,1.6,0.2,2.1,0.7c0.5,0.4,0.8,1,0.8,1.7V14l-4.8,0.8c-2.1,0.3-3.6,1-4.7,2
	c-1,1-1.5,2.2-1.5,3.6c0,1.6,0.6,2.8,1.6,3.7C119.9,24.9,121.4,25.4,123.3,25.4z M124.2,21.9c-0.6,0-1.1-0.1-1.5-0.4
	c-0.4-0.3-0.6-0.7-0.6-1.2c0-0.6,0.2-1,0.5-1.3c0.4-0.3,0.9-0.5,1.6-0.7l4-0.7V18c0,1.1-0.4,2-1.1,2.7S125.4,21.9,124.2,21.9z
	 M141.3,25V14.8c0-1,0.3-1.8,0.9-2.4c0.6-0.6,1.4-0.9,2.3-0.9s1.7,0.3,2.3,0.9s0.9,1.4,0.9,2.4V25h4.8V13.8c0-1.3-0.3-2.5-0.8-3.5
	c-0.5-1-1.3-1.8-2.3-2.3c-1-0.6-2.1-0.8-3.5-0.8c-1.1,0-2.1,0.2-2.9,0.6c-0.8,0.4-1.5,1.1-2,1.9V7.5h-4.5V25H141.3z M2,1h2
	c1.1,0,2,0.9,2,2v21c0,1.1-0.9,2-2,2H2c-1.1,0-2-0.9-2-2V3C0,1.9,0.9,1,2,1z M11,1h2c1.1,0,2,0.9,2,2v21c0,1.1-0.9,2-2,2h-2
	c-1.1,0-2-0.9-2-2V3C9,1.9,9.9,1,11,1z M20,1h2c1.1,0,2,0.9,2,2v21c0,1.1-0.9,2-2,2h-2c-1.1,0-2-0.9-2-2V3C18,1.9,18.9,1,20,1z"/>
</svg>
